<svg viewBox="0 0 1000 600" xmlns="http://www.w3.org/2000/svg" xmlns:xlink="http://www.w3.org/1999/xlink"><defs><path id="a" d="M0 0h800v431H0z"/><path d="M300 600c165.685 0 300-134.315 300-300S465.685 0 300 0 0 134.315 0 300s134.315 300 300 300z" id="c"/></defs><g fill="none" fill-rule="evenodd"><g transform="translate(100 39)"><mask id="b" fill="#fff"><use xlink:href="#a"/></mask><circle stroke="#000" stroke-width="20" fill="#4F4F4F" fill-rule="nonzero" mask="url(#b)" cx="400" cy="328" r="310"/><g mask="url(#b)"><g transform="translate(100 28)"><mask id="d" fill="#fff"><use xlink:href="#c"/></mask><path d="M173.06 91.6c-21.234 0-38.46 17.19-38.46 38.393 0 21.18 17.226 38.407 38.46 38.407 21.24 0 38.34-17.226 38.34-38.407 0-21.204-17.1-38.393-38.34-38.393zm69.502 58.342l-6.254 15.067 11.156 21.91 1.473 2.893-15.469 15.47-25.379-11.987-15.067 6.187-7.647 23.41-.978 3.108h-21.864l-9.462-26.424-15.066-6.214-21.944 11.13-2.893 1.446-15.462-15.456 11.973-25.393-6.207-15.053-23.371-7.634L77 141.397v-21.85l26.444-9.476 6.208-15.04-11.123-21.958-1.466-2.88 15.441-15.44 25.413 11.966 15.047-6.221 7.64-23.398.985-3.1h21.857l9.47 26.458 15.026 6.22 21.95-11.136 2.92-1.466 15.456 15.442-11.973 25.372 6.187 15.074 23.438 7.64 3.08.985v21.844l-26.438 9.509zM173 158.8c-15.906 0-28.8-12.894-28.8-28.8s12.894-28.8 28.8-28.8 28.8 12.894 28.8 28.8-12.894 28.8-28.8 28.8z" fill="#2E2E2E" fill-rule="nonzero" mask="url(#d)"/><path d="M24.06 188.6c-21.234 0-38.46 17.19-38.46 38.393 0 21.18 17.226 38.407 38.46 38.407 21.24 0 38.34-17.226 38.34-38.407 0-21.204-17.1-38.393-38.34-38.393zm69.502 58.342l-6.254 15.067 11.156 21.91 1.473 2.893-15.469 15.47-25.379-11.987-15.067 6.187-7.647 23.41-.978 3.108H13.533l-9.462-26.424-15.066-6.214-21.944 11.13-2.893 1.446-15.462-15.456 11.973-25.393-6.207-15.053-23.372-7.634-3.1-1.005v-21.85l26.444-9.476 6.208-15.04-11.123-21.958-1.467-2.88 15.442-15.44 25.413 11.966 15.047-6.221 7.64-23.398.985-3.1h21.857l9.47 26.458 15.026 6.22 21.95-11.136 2.92-1.466 15.456 15.442-11.973 25.372 6.187 15.074 23.438 7.64 3.08.985v21.844l-26.438 9.509zM24 255.8c-15.906 0-28.8-12.894-28.8-28.8S8.094 198.2 24 198.2s28.8 12.894 28.8 28.8-12.894 28.8-28.8 28.8zM321.06-4.4c-21.234 0-38.46 17.19-38.46 38.393 0 21.18 17.226 38.407 38.46 38.407 21.24 0 38.34-17.226 38.34-38.407 0-21.204-17.1-38.393-38.34-38.393zm69.502 58.342l-6.254 15.067 11.156 21.91 1.473 2.893-15.469 15.47-25.379-11.987-15.067 6.187-7.647 23.41-.978 3.108h-21.864l-9.462-26.424-15.066-6.214-21.944 11.13-2.893 1.446-15.462-15.456 11.973-25.392-6.207-15.054-23.371-7.634L225 45.397v-21.85l26.444-9.476 6.208-15.04-11.123-21.958-1.466-2.88 15.441-15.44 25.413 11.966 15.047-6.221 7.64-23.398.985-3.1h21.857l9.47 26.458 15.026 6.22 21.95-11.136 2.92-1.466 15.456 15.442L384.295-1.11l6.187 15.074 23.438 7.64 3.08.985v21.844l-26.438 9.509zM321 62.8c-15.906 0-28.8-12.894-28.8-28.8S305.094 5.2 321 5.2s28.8 12.894 28.8 28.8-12.894 28.8-28.8 28.8z" fill="#2E2E2E" fill-rule="nonzero" mask="url(#d)"/><path d="M359.06 168.6c-21.234 0-38.46 17.19-38.46 38.393 0 21.18 17.226 38.407 38.46 38.407 21.24 0 38.34-17.226 38.34-38.407 0-21.204-17.1-38.393-38.34-38.393zm69.502 58.342l-6.254 15.067 11.156 21.91 1.473 2.893-15.469 15.47-25.379-11.987-15.067 6.187-7.647 23.41-.978 3.108h-21.864l-9.462-26.424-15.066-6.214-21.944 11.13-2.893 1.446-15.462-15.456 11.973-25.393-6.207-15.053-23.371-7.634-3.101-1.005v-21.85l26.444-9.476 6.208-15.04-11.123-21.958-1.466-2.88 15.441-15.44 25.413 11.966 15.047-6.221 7.64-23.398.985-3.1h21.857l9.47 26.458 15.026 6.22 21.95-11.136 2.92-1.466 15.456 15.442-11.973 25.372 6.187 15.074 23.438 7.64 3.08.985v21.844l-26.438 9.509zM359 235.8c-15.906 0-28.8-12.894-28.8-28.8s12.894-28.8 28.8-28.8 28.8 12.894 28.8 28.8-12.894 28.8-28.8 28.8z" fill="#2E2E2E" fill-rule="nonzero" mask="url(#d)"/><path d="M508.06 72.6c-21.234 0-38.46 17.19-38.46 38.393 0 21.18 17.226 38.407 38.46 38.407 21.24 0 38.34-17.226 38.34-38.407 0-21.204-17.1-38.393-38.34-38.393zm69.502 58.342l-6.254 15.067 11.156 21.91 1.473 2.893-15.469 15.47-25.379-11.987-15.067 6.187-7.647 23.41-.978 3.108h-21.864l-9.462-26.424-15.066-6.214-21.944 11.13-2.893 1.446-15.462-15.456 11.973-25.393-6.207-15.053-23.371-7.634-3.101-1.005v-21.85l26.444-9.476 6.208-15.04-11.123-21.958-1.466-2.88 15.441-15.44 25.413 11.966 15.047-6.221 7.64-23.398.985-3.1h21.857l9.47 26.458 15.026 6.22 21.95-11.136 2.92-1.466 15.456 15.442-11.973 25.372 6.187 15.074 23.438 7.64 3.08.985v21.844l-26.438 9.509zM508 139.8c-15.906 0-28.8-12.894-28.8-28.8s12.894-28.8 28.8-28.8 28.8 12.894 28.8 28.8-12.894 28.8-28.8 28.8z" fill="#2E2E2E" fill-rule="nonzero" mask="url(#d)"/><path d="M546.06 246.6c-21.234 0-38.46 17.19-38.46 38.393 0 21.18 17.226 38.407 38.46 38.407 21.24 0 38.34-17.226 38.34-38.407 0-21.204-17.1-38.393-38.34-38.393zm69.503 58.342l-6.255 15.067 11.156 21.91 1.473 2.893-15.469 15.47-25.379-11.987-15.067 6.187-7.647 23.41-.978 3.108h-21.864l-9.462-26.424-15.066-6.214-21.944 11.13-2.893 1.446-15.462-15.456 11.973-25.393-6.207-15.053-23.371-7.634-3.101-1.005v-21.85l26.444-9.476 6.208-15.04-11.123-21.958-1.466-2.88 15.441-15.44 25.413 11.966 15.047-6.221 7.64-23.398.985-3.1h21.857l9.47 26.458 15.026 6.22 21.95-11.136 2.92-1.466 15.456 15.442-11.973 25.372 6.187 15.074 23.438 7.64 3.08.985v21.844l-26.438 9.509zM546 313.8c-15.906 0-28.8-12.894-28.8-28.8s12.894-28.8 28.8-28.8 28.8 12.894 28.8 28.8-12.894 28.8-28.8 28.8z" fill="#2E2E2E" fill-rule="nonzero" mask="url(#d)"/></g></g></g><path d="M560.343 501.79h1.446c2.522 5.169 8.653 7.526 13.73 9.607 5.916 2.425 11.805 2.304 18.067 2.733 7.315.501 14.302 1.38 21.68 1.38 4.944 0 11.187-1.194 15.9.287 12.443 3.912 26.618 5.88 39.746 6.2 3.63.09 7.256.086 10.84-.536 2.333-.404 4.858-1.536 7.227-.963 5.728 1.385 10.706 5.239 16.622 6.649 10.54 2.512 21.73 4.54 32.52 5.57 3.756.359 7.928-.852 11.563-.075 3.75.803 7.162 3.238 10.84 4.371 8.976 2.765 18.927 4.592 28.184 6.325 4.502.844 9.15 1.325 13.731.99 2.255-.166 4.87-1.388 7.104-.832 2.052.512 3.758 2.474 5.492 3.612 2.342 1.538 5.03 2.71 7.639 3.718 10.645 4.112 22.728 7.146 33.966 9.117 20.234 3.547 39.024-7.645 42.32-28.548 1.857-11.78.317-24.901.317-36.825v-72.928c0-15.662 2.356-32.38-8.108-45.48-9.98-12.484-26.233-16.128-41.033-19.676-4.95-1.186-10.082-3.054-15.177-3.401-3.223-.22-6.93-.366-10.117.232-2.14.401-4.278 1.512-6.504 1.265-4.618-.514-8.773-5.932-13.008-7.86-8.665-3.941-18.877-5.757-28.185-7.536-5.803-1.11-13.015-1.241-18.79.06-3.114.702-7.587 3.643-10.63 3.4-2.19-.174-4.27-2.818-5.988-4.013-4.768-3.31-9.59-6.579-15.179-8.357-6.492-2.067-13.538-2.455-20.235-3.44-10.122-1.49-20.172-3.416-30.352-4.632-6.367-.761-14.043-.704-20.235 1.084-3.412.985-7.688 4.932-11.346 4.26-2.506-.462-5.306-3.572-7.446-4.94-4.487-2.864-9.165-5.109-14.45-6.052-5.53-.987-11.076-.652-16.622-1.18-9.645-.917-19.245-2.08-28.907-.596-3.069.47-5.978 1.607-8.672 3.148-1.56.892-3.166 2.391-5.059 2.435-2.637.06-5.12-2.52-7.216-3.821-2.882-1.79-6.087-3.036-9.406-3.725-13.203-2.744-27.048-1.672-40.47-1.65-5.653.009-10.775 1.469-15.898 3.865-2.316 1.084-4.541 3.62-7.227 3.576-2.186-.036-4.535-1.553-6.504-2.387-3.756-1.593-7.547-3.09-11.563-3.889-14.83-2.947-30.515-3.194-45.528-1.765-9.532.907-19.3 3.079-28.184 6.704-3.344 1.363-6.904 2.865-10.118 4.497-1.637.831-3.205 2.455-5.059 2.758-3.132.511-7.802-3.184-10.84-4.164-5.019-1.62-10.685-1.453-15.899-1.225-4.815.212-9.663 1.358-14.453 1.932-6.23.747-12.767.99-18.79 2.91-3.14 1.003-6.488 2.261-9.271 4.047-1.905 1.22-3.526 3.33-5.908 3.58-3.451.364-7.393-1.843-10.837-2.255-6.368-.761-13.209-.185-19.512.787-9.562 1.475-19.646 3.288-28.184 8.043-3.645 2.03-7.431 8.827-11.686 9.037-1.935.095-3.883-1.331-5.658-1.94-3.782-1.298-7.555-2.32-11.563-2.34-7.658-.037-14.293 1.974-21.68 3.385-21.715 4.147-50.474 7.358-63.462 27.663-4.929 7.706-7.19 16.627-9.828 25.272-3.814 12.505-7.4 25.1-11.382 37.547-2.733 8.545-5.184 17.803-6.252 26.716-.732 6.114-.133 12.62-.133 18.774v32.493c0 14.197.06 27.942 11.89 38.06 13.119 11.22 29.411 7.295 44.478 3.526 6.39-1.597 13.096-2.686 19.206-5.31 3.002-1.288 6.228-2.589 8.979-4.36 1.65-1.064 3.111-2.682 5.058-3.198 2.684-.711 5.957.635 8.672.822 4.259.293 8.834-.155 13.008-1.029 9.583-2.005 19.5-4.077 28.907-6.784 3.706-1.066 7.06-3.525 10.84-4.207 4.947-.892 10.182.218 15.177-.316 8.359-.894 17.037-2.712 25.293-4.351 4.54-.902 8.766-2.138 13.008-3.996 2.068-.906 4.25-2.72 6.504-3.004 2.559-.321 5.345 1.212 7.95 1.339 6.446.313 13.117-.135 19.512-.9 10.155-1.214 19.983-2.11 29.63-5.634 3.855-1.409 7.55-6.512 11.563-6.564 2.673-.034 5.456 1.673 7.949 2.48 4.483 1.45 9.073 2.429 13.73 3.118 13.875 2.051 28.717 1.515 42.638.185 8.587-.82 17.977-2.505 26.017-5.693 3.74-1.483 9.649-5.993 13.72-5.331 2.189.356 3.968 2.193 5.856 3.226 2.427 1.327 5.2 2.205 7.885 2.838 7.598 1.79 16.088.661 23.849.753 8.419.1 16.26 1.603 24.57-.875 4.943-1.473 11.105-2.996 13.731-7.792z" fill="#000"/><path d="M428.094 341.077c6.105-.8 11.996.227 18.067.406 4.582.134 9.405.943 13.73 2.511 6.287 2.28 12.334 4.997 16.486 10.507 6.131 8.138 5.917 17.81 5.917 27.427v59.21c0 8.922-.125 18.227-5.571 25.787-8.419 11.687-22.874 14.998-36.344 16.608-3.122.373-6.264.057-9.394.27-14.413.987-32.863 1.807-43.738-9.759-11.4-12.128-7.572-33.629-7.572-48.792v-35.38c0-11.038-.138-21.952 6.656-31.359 4.437-6.144 10.951-9.948 17.915-12.638 7.63-2.948 15.823-3.745 23.848-4.798zm112.014 66.846v51.988c0 4.867 1.93 15.36-1.953 19.06-3.563 3.397-13.156.49-17.559.439-4.055-.049-10.747 1.295-14.375-.745-2.92-1.642-2.953-4.982-2.968-7.923-.033-6.257-.001-12.516-.001-18.774V371.82c0-7.218-.098-14.444.003-21.661.046-3.3.65-6.758 4.344-7.713 6.636-1.716 15.657-.271 22.392.37 2.776.263 6.02-.425 8.671.557 2.466.914 4.131 3.13 5.375 5.341 4.675 8.31 8.125 17.42 12.314 25.995 1.222 2.499 2.563 8.212 6.157 8.122 2.512-.063 3.471-2.99 4.443-4.819 2.455-4.619 4.239-9.492 6.57-14.134 2.563-5.106 5.244-14.367 10.084-17.645 2.205-1.493 5.272-1.211 7.813-1.1 6.422.28 13.127 1.178 19.512 1.93 2.547.301 5.662-.264 7.843 1.365 2.435 1.819 2.27 4.783 2.275 7.507v119.863c-.002 2.725.46 6.195-2.275 7.813-3.889 2.3-10.102.15-14.347.13-5.032-.025-15.466.952-19.14-3.108-3.716-4.105-1.817-14.126-1.817-19.277v-50.544c-5.095 5.4-5.717 13.825-10.46 19.402-2.343 2.754-5.574 3.643-9.052 3.7-3.13.053-6.517.32-9.384-1.157-2.886-1.488-4.061-4.067-5.548-6.782-3.222-5.883-5.095-12.51-8.917-18.051zm-218.247-7.221v-31.77c0-4.186-1.026-9.953 1.653-13.519 2.052-2.733 5.451-2.198 8.464-2.49 6.277-.607 12.468-2.036 18.79-2.043 2.564-.003 6.448-.577 7.578 2.414 1 2.644.371 6.356.371 9.139V473.63c0 3.23.77 7.68-.536 10.706-1.489 3.449-4.949 3.498-8.136 3.86l-17.344 2.006c-2.513.281-6.107 1.457-8.423.015-2.658-1.654-2.412-5.213-2.417-7.922-.012-6.022 1.542-14.5-.426-20.218-1.63-4.736-6.605-9.178-9.752-12.997-5.872-7.127-11.006-15.592-18.006-21.662v46.212c0 5.419 1.752 14.62-.953 19.454-2.24 4.004-7.346 4.078-11.333 4.497-4.776.502-9.747 1.561-14.453 2.523-2.804.573-6.666 1.945-8.859-.709-1.921-2.326-1.259-6.362-1.259-9.157V376.152c0-2.95-.505-6.577 1.053-9.235 1.634-2.79 4.693-3.437 7.62-3.966 5.695-1.027 12.246-3.373 18.066-2.464 5.988.936 9.785 7.029 13.425 11.332 8.172 9.665 16.122 19.743 24.877 28.883zm385.185 61.375c-6.83-.018-13.552-1.614-20.235-2.888-2.411-.46-6.221-1.576-8.236.436-1.753 1.75-1.159 5.268-1.159 7.507 0 6.102 1.444 14.316-.313 20.175-1.027 3.425-4.743 2.961-7.636 2.928-6.245-.072-12.642-.819-18.79-1.85-2.383-.399-5.38-.318-7.332-1.959-2.209-1.858-2.05-5.13-2.062-7.741-.03-6.258 0-12.516 0-18.774 0-12.01-1.344-24.917.209-36.825 1.866-14.316 7.787-28.257 12.333-41.88 2.263-6.782 4.89-13.446 7.185-20.217 1.05-3.1 2.932-6.843 6.415-7.724 3.935-.996 8.284.429 12.16 1.026 9.148 1.412 18.25 3.411 27.461 4.411 4.736.515 10.562.375 14.169 4.012 2.054 2.072 2.658 4.992 3.547 7.661 1.837 5.51 3.474 11.07 5.225 16.608 5.36 16.94 12.126 34.273 14.429 51.988.737 5.65.21 11.639.21 17.33v31.049c0 3.323 1.134 9.324-1.157 12.045-3.316 3.929-12.033.503-16.188-.193-5.297-.89-13.803-.595-17.96-4.253-2.85-2.507-2.275-6.334-2.275-9.766v-23.106zm94.67-15.163v54.877c0 3.116.427 7.371-1.85 9.878-2.392 2.63-6.114.785-8.99.173-5.803-1.235-11.534-2.752-17.344-3.95-3.635-.75-7.068-1.308-8.26-5.383-.976-3.336-.412-7.385-.412-10.827V381.928c0-2.924-.81-7.386.744-10.002 2.298-3.88 8.116-1.352 11.541-.826 5.5.844 12.647 2.186 17.135 5.666 4.452 3.453 7.595 9.891 10.616 14.614 7.957 12.431 15.371 25.714 24.282 37.482v-30.326c0-3.5-.99-8.983 1.055-12.046 2.016-3.024 7.017-1.309 9.785-.533 6.005 1.684 12.076 3.01 18.067 4.738 3.331.961 6.764 2.161 8.137 5.678 1.156 2.983.535 6.962.535 10.106V519.12c0 2.785.636 6.91-1.756 8.949-2.248 1.911-5.861.445-8.361-.142-5.11-1.203-10.132-2.73-15.177-4.166-2.594-.74-5.586-1.053-7.949-2.43-4.336-2.533-4.336-6.41-4.336-10.875 0-6.254.932-13.335-.166-19.496-.89-5.035-5.637-10.939-8.463-15.163-4.097-6.136-7.87-12.62-11.664-18.952-2.06-3.428-3.974-7.467-7.169-9.931zm-603.432 33.937c-6.933 1.706-14.078 2.617-20.958 4.545-2.313.647-5.693 1.092-6.79 3.56-.9 2.024-.437 4.899-.437 7.058v15.164c-.021 4.443-.464 8.941-5.062 10.936-6.794 2.947-15.195 4.262-22.4 6.05-2.17.539-5.65 1.73-7.513-.095-1.983-1.945-1.158-6.44-1.158-8.949v-23.106c0-10.84-1.193-22.464.209-33.215 2.038-15.633 8.496-31.206 13.112-46.212 1.705-5.54 3.432-11.068 5.1-16.607 1.301-4.322 2.048-8.814 5.579-11.996 3.284-2.959 8.03-3.54 12.133-4.713 9.7-2.775 19.72-4.83 29.63-6.73 4.532-.869 10.011-3.512 14.253-.282 2.524 1.923 3.161 5.738 4.196 8.558 2.125 5.786 4.18 11.597 6.443 17.33 4.314 10.927 8.977 23.071 11.01 34.658 2.297 13.096.954 27.178.954 40.436v17.33c0 2.967.407 6.539-1.136 9.224-1.6 2.784-5.373 3.413-8.258 3.95-6.305 1.174-12.473 3.03-18.79 4.096-2.877.485-6.653 1.608-8.442-1.492-1.507-2.612-.953-6.393-.953-9.28 0-6.596.813-13.775-.722-20.218zm231.255-102.224c-4.318.618-9.07 1.212-11.333 5.478-2.074 3.913-.952 10.126-.952 14.43v31.772c0 4.312-.768 11.031 2.333 14.546 3.146 3.566 12.24 2.384 16.456 1.751 10.123-1.518 8.672-10.494 8.672-18.464v-32.492c0-3.946 1.194-10.278-1.158-13.677-2.825-4.083-9.635-3.97-14.018-3.344zm250.768 44.459c7.872 1.331 15.804 3.588 23.848 3.61-.302-7.047-2.755-13.449-4.41-20.217-.798-3.269-.956-6.992-2.563-10.013-1.19-2.24-4.176-3.56-6.682-3.466-3.35.125-3.815 4.45-4.512 6.98-2.074 7.53-5.32 15.222-5.68 23.106zm-508.04 28.16c8.352-1.055 16.295-3.837 24.571-5.054-.275-6.016-2.638-11.646-4.41-17.33-1.016-3.258-1.367-7.004-3.119-10.002-1.433-2.451-4.51-2.662-6.845-1.32-3.292 1.889-3.88 6.513-4.619 9.878-1.74 7.939-4.394 15.786-5.578 23.828z" fill="#9B9B9B" fill-rule="nonzero"/><g fill-rule="nonzero"><path fill="#FFF" d="M392 194h216v128H392z"/><path d="M610.371 336.892H390.395c-9.964 0-18.395-8.43-18.395-18.395V197.395c0-9.964 8.431-18.395 18.395-18.395h219.21c9.964 0 18.395 8.431 18.395 18.395v121.102c0 9.964-7.665 18.395-17.629 18.395zm-201.58-36.79h24.526v-48.288l24.527 30.66 24.527-30.66v48.288h24.527V215.79h-24.527l-24.527 30.66-24.527-30.66H408.79v84.312zm154.06 0l36.79-41.39h-24.527V215.79h-24.527v43.689H526.06l36.79 40.623z" fill="#000"/></g></g></svg>